<?xml version="1.0" encoding="utf-8"?>
<!-- Generator: Adobe Illustrator 19.2.0, SVG Export Plug-In . SVG Version: 6.00 Build 0)  -->
<svg version="1.1" id="Layer_1" xmlns="http://www.w3.org/2000/svg" xmlns:xlink="http://www.w3.org/1999/xlink" x="0px" y="0px"
	 viewBox="0 0 1280 200" style="enable-background:new 0 0 1280 200;" xml:space="preserve">
<style type="text/css">
	.st0{fill:#FFFFFF;}
	path{opacity:0.4;}
</style>
<path d="M1055,1c6.9,9.1,14,18.2,20.7,27.5c1.3,1.8,1.9,5,1.3,7.1c-6.4,19.9-13.3,39.7-19.8,59.7c-1.3,4.1-3.4,6-7.7,6.2
	c-5,0.2-9.9,0.9-16.1,1.6c3.1,2.1,5.2,3.6,7.4,5.1c-0.1,0.3-0.1,0.6-0.2,0.9c-4-0.6-8.1-1.1-12.3-1.7c0.3-1.5,0.5-2.5,0.6-2.8
	c-10.4-2-20.6-4-31.4-6.1c0.5-2.4,0.5-4.5,1.3-6.2c13.3-30.5,26.7-60.9,40.1-91.3C833.7,1,628.3,1,423,1c7.6,4.7,5.1,12.8,7,19.4
	c-4,1.4-6.5,0.3-8.6-2.6c-3.4-4.7-7.1-9.2-11.3-14.5c-2.6,5.8-5,10.9-7.5,16.6c-5.6-5.6-11.1-10.9-16.5-16.4
	c-0.3-0.3,0.6-1.6,0.9-2.5C284.3,1,181.7,1,79,1c-0.7,7.4-1.4,14.9-1.9,22.3c-0.7,9.9-1.5,19.9-1.8,29.8C75.1,62.6,70,70.2,67,78.6
	c-1.2,3.5-2.7,6.9-4.2,10.6c-5-2.4-9.8-4.3-14.2-6.9c-3.9-2.3-3-6.3-1.8-9.8c7.5-21.8,15-43.7,22.5-65.5C70,5.1,70.5,3,71,1
	C47.7,1,24.4,1,1.1,1c0,66.7,0,133.3,0,200c29.4,0,58.6,0,87.9,0c-2.5-8.4-5.1-16.8-7.7-25.8c9.4-2.9,18.5-5.7,27.8-8.4
	c0.9-0.3,2.1,0.4,3.1,0.8c0.4,0.2,0.9,0.6,1.1,0.9c8.4,11.4,20,12.4,32.7,10.1c4.3-0.8,8.8-0.6,14.8-0.9c-5.5,8.6-10.1,16-14.8,23.3
	c5,0,10,0,15,0c1.2-4.9,2.4-9.8,3.9-16.4c4.9,6.2,9,11.3,13.1,16.4c15,0,30,0,45,0c-5.4-5.8-10.9-11.5-16.8-17.8
	c15.8-6.2,30.9-12.1,47.4-18.5c-9.8,12.9-18.7,24.6-27.6,36.3c22,0,44,0,66,0c-0.3-4.5-0.8-8.9-0.9-13.4c-0.1-2.9-1.4-3.7-4.1-3.6
	c-2.4,0.1-4.9,0-8.2,0c1.3-12.2,2.4-23.8,3.7-36.5c13.7,9.8,26.1,18.7,38.5,27.6c3.2,2.3,6.5,4.6,9.7,7c0.8,0.6,1,1.9,2.2,4.2
	c8.6,4,8.6,4,8.2,14.6c78,0,156,0,234,0c7.2-3.9,14.2-8.2,22.8-8c2.8,0,5.7,0.2,8.4-0.3c11.3-2,20.5,3.3,29.7,8.3c51,0,102,0,153,0
	c-4-5.9-7.9-11.8-12-17.6c-0.5-0.7-1.6-1.1-2.5-1.1c-8.9-0.2-14.9-1.8-22.7-6.3c5.7,0,11.2,1.3,15.8-0.3c7.8-2.6,14.3,1.4,21.3,2.3
	c3.2,0.4,5,2.1,5.5,5.3c0.4,2.4,1,4.9,2.1,7.2c2,4.3,1.5,7.8-2.6,10.5c13.3,0,26.7,0,40,0c-5.4-5-10.8-10-17.2-15.9
	c7.7,1.2,14.3,2.1,20.7,3.3c0.9,0.2,1.9,2.1,1.9,3.2c0.1,3.1-0.3,6.3-0.5,9.4c39.3,0,78.7,0,118,0c-0.5-3.8-1-7.5-1.5-11.3
	c-0.5-3.6-1-7.1-0.6-11c2.7,7.4,5.4,14.8,8,22.3c2.7,0,5.3,0,8,0c-4.5-7.6-8.8-15.2-13.5-22.6c-2-3.1-2.4-5.8-1-9.2
	c1.3-3.3,2.2-6.8,3.6-11.4c4.6,15.3,8.7,29.3,12.9,43.3c24.3,0,48.7,0,73,0c-1.5-4.6-2.9-9.1-4.3-13.3c-4.7,0-9.2,0.2-13.6-0.1
	c-2.8-0.2-6.4,2-8.1-2.3c-0.1-0.3-1.9-0.2-2.8,0c-8.2,1.8-16.3,3.7-25.4,5.9c1.6-4.4,2.8-8.2,4.5-11.8c0.4-0.9,2.4-1.5,3.7-1.5
	c5.8-0.1,11.7-0.3,17.4,0.2c4.9,0.4,8-0.7,8.9-5.9c0.2-1.1,0.9-2.1,1.6-3.4c6.3,2.2,9.3,10,15.9,9.4c0.4,1.3,0.8,2.3,1,3.3
	c0.5,1.8,5.8,1.5,2.3,5.1c0.9,0.7,1.7,1.6,2.6,2.2c5.8,4.1,11.6,8.1,17.3,12.2c23,0,46,0,69,0c-7.1-15.7-11.3-32.7-22.2-47.1
	c12.2-2.7,20.5-11.7,30.9-17.5c1.6-0.9,4.2-1.1,5.8-0.4c20.3,9.1,40.8,18,60.7,28.1c7.7,3.9,13.8,10.8,21.2,16.8
	c-10.9,7-21.1,13.6-31.4,20.2c26.7,0,53.3,0,80,0c0-36.7,0-73.3,0-110c-9.4-3.1-18.8-6.3-28.7-9.5c1.3-1.7,2.3-3.2,3.8-5.3
	c-6-9.5-12.1-19.3-18.5-29.5c-1,0.6-2.3,1.6-3.8,2c-2.9,0.9-6,2.4-8.9,2.1c-11.3-1.3-22.5-3-33.7-4.9c-1.8-0.3-3.2-2.6-4.8-4
	c1.4-1.6,2.6-4.1,4.4-4.7c12.9-4.1,26-7.9,39.1-11.6c1.6-0.5,3.7-0.3,5.2,0.4c6.6,3,13.2,6.2,20.3,9.6c-4.3,2.7-8.1,5.1-13.5,8.5
	c7.9-0.1,9.3,4.3,10.5,9.4c1.6,6.8,3.9,13.4,6,20.4c5.9-4.6,1.4-9.9,2-15.4c1.4,3.2,2.5,5.8,3,7c3.8-0.1,6.7-0.5,9.6-0.2
	c2.8,0.3,5.5,1.2,8.2,1.9c0-22,0-43.9,0-66C1205.7,1,1130.3,1,1055,1z M16,188c-0.1-0.4-0.2-0.8-0.3-1.2c5-2.5,9.9-5.1,15-7.4
	c0.9-0.4,2.7,0.1,3.4,0.8c3.2,3.5,6.2,7.2,10.3,12C34,190.7,25,189.3,16,188z M229.1,88.6c0.8,0.2,1.8,3.3,1.2,4.2
	c-2.5,4.3-5.4,8.2-8.7,13.1c-3.3-7.1-6.1-13.2-9.4-20.5C218.6,86.6,223.9,87.4,229.1,88.6z M88.3,82.4c-2.1,5.1-4.1,10.2-6.4,15.9
	c-1.8-0.8-3.2-1.4-3.9-1.7c5.6-19.3,11-38.3,16.5-57.2C97.1,54.4,95.5,65.2,88.3,82.4z M195.2,163.2c-5.5,1.4-8.8-0.1-12.5-4
	C172.4,147.9,161.7,137,151,126c-8.4-8.6-17.2-16.8-19.7-29.5c-2,0.3-3.4,0.6-4.9,0.8c-0.3-0.5-0.8-1.1-1-1.7
	c-6.7-16.7-13.3-33.4-20-50c-1-2.6-0.8-4.1,1.5-5.9c10.3-7.9,20.1-16.5,30.7-23.9c7.9-5.6,17.2-7.4,27.7-6c-2.3,6-4.4,11.5-6.5,17
	c-2.6,6.7-5,13.4-7.9,20c-1.4,3.2-0.8,5.1,1.8,7.2c7.7,6.3,15.3,12.8,22.9,19.3c1.1,1,2.1,2,3.7,3.5c-15,2.8-15.8,17-24,26.1
	c9.1,4.1,17.2,7.7,25.4,11.4c13.1,5.8,26.5,10.9,39,17.7c9.4,5.1,17.4,12.6,27.3,19.8C228.6,155.8,211.8,159.1,195.2,163.2z
	 M540.8,86.4c3.2,1.2,6.3,2.5,9.9,4c-1.4,3.8-2.6,7.1-4,10.9c-6-3-11.8-5.8-17.6-8.6C531.7,85,534,83.8,540.8,86.4z M416.3,37.8
	c9.6,4.1,19.1,8.3,28.5,12.4c-12,0.5-22.1-4-32.3-11.5C414.2,38.3,415.5,37.5,416.3,37.8z M458.5,57.4c-0.8,2.1-1.4,3.8-2.2,6.3
	c-4.9-2.5-9-4.7-13.1-6.8c0.1-0.4,0.2-0.8,0.3-1.1C448.3,56.3,453,56.8,458.5,57.4z M386.4,14.6c-6-2.6-11.1-4.8-16.5-7.1
	C376.1,4.2,379,5.4,386.4,14.6z M405.6,68.4c-2.7,11.8-5.7,23.6-8.7,36c-3-0.3-6-0.4-8.8-1c-3.1-0.7-4.5,0.4-5.6,3.2
	c-1.9,4.8-4.1,9.5-6.1,14.2c-1.4,3.3-3.3,4.1-6,1.3c-0.6-0.6-1.2-1.2-1.8-1.8c-8-7.8-12.3-9.2-24.5-8.1c6.7,17.8,13.3,35.4,20.3,54
	c-8-2.5-14.9-4.6-21.8-6.8c-5.6-1.8-11.1-3.5-16.6-5.4c-3-1-5.6-1.8-8.1,1.2c-0.5,0.6-3.3,0.3-4.1-0.5c-7-6.7-15.6-10-24.7-12.4
	c-1.4-0.4-3.9-1.8-3.8-2.4c0.3-1.8,1.3-3.9,2.7-4.9c4.9-3.5,9.9-6.7,15.1-9.7c3.1-1.8,5.1-4,5.4-7.7c0.7-9.5,4.4-16.5,16-17.2
	c-5-7-9.3-13.1-13.6-19.2c7.7-3.5,15.2-6.7,22.4-10.1c1-0.5,1.3-2.2,2-3.5c-7.9-3.8-15.3-8.3-24.4-5.3c-0.9,0.3-2.4-0.1-3.2-0.7
	c-8.9-6.8-17.2-14.6-24.2-17.6c-0.9-0.1-1.7-0.4-2.6-0.9c0.8,0.2,1.7,0.5,2.6,0.9c4.7,0.5,9.4-5.1,13.7-11.7c0.9-1.3,3.2-2.3,5-2.4
	c6.6-0.5,13.3-0.4,19.9-0.9c4.9-0.4,6.3,2.1,6,6.2c-0.4,5.1-0.9,10.3-1.8,15.4c-0.7,3.9,0,6.6,3.6,8.7c2.6,1.4,4.8,3.3,7.5,5.2
	c4.9-8.3,9.5-16.2,14.5-24.5c-2.8-1-5.2-1.8-8.2-2.8c1.5-3.7,3-7.2,5-12c18.9,9.9,37.4,19.5,55.9,29.2c-0.1,0.2-0.2,0.5-0.2,0.7
	c-9.3-2.7-18.7-5.4-28.6-8.3c7.4,7,16.2,9.5,25.1,9.8c9.4,0.4,15,6,20.6,12.3c-5.8-2-11.6-4.1-17.4-6.1
	C404.6,64.9,405.9,66.9,405.6,68.4z M483.2,181.7c-2,2.2-4.8,4.1-7.6,5.2c-7.9,3.3-16.1,6.2-24,9.2c-5.2-6-2.9-12.4-2.5-18.8
	c0.2-2.8,0-6.1-1.2-8.5c-3.8-7.2-4.1-15-4.6-22.8c-0.4-5.6-0.6-11.2-0.9-17.5c4,0.9,7.5,1.6,11.2,2.4c-0.6,7.1-1.1,13.7-1.6,20.3
	c0.3,0,0.5,0.1,0.8,0.1c0.8-5.8,2-11.5,2.4-17.3c0.3-4.9,2.5-7.3,7.1-9.2c5-2,8-1.4,10.4,3.2c3.6,6.9,9.6,10.3,17.2,10.8
	c3.4,0.2,5.2,1.9,6.4,5.2c1.8,5,4.1,9.8,6,14.2C497,167.5,489.9,174.4,483.2,181.7z M507.3,183.5c-0.2-0.6-0.4-1.2-0.6-1.8
	c0.8-0.6,1.6-1.6,2.4-1.6c10.9-0.1,21.9-0.1,32.8-0.1c0,0.5,0,1,0.1,1.4C530.5,182.1,518.9,182.8,507.3,183.5z M528.1,159.5
	c1.2-0.4,2.7-1.6,3.6-1.2c3,1.2,5.8,3,8.6,4.6c-0.1,0.4-0.2,0.7-0.3,1.1c-3.2-0.5-6.4-0.9-9.5-1.7
	C529.5,161.9,528.9,160.4,528.1,159.5z M606.9,174.8c-25.8-7.2-51.5-14.5-77.2-21.9c-1.6-0.5-3.6-1.9-4.2-3.4
	c-4.4-11.8-8.5-23.8-13.2-37.1c12.8,5.8,24.5,11.1,36.1,16.4c8.7,4,17.4,7.8,26,12c2.3,1.1,4.9,3.2,5.8,5.4
	c2.9,7.4,9.4,11,14.8,15.8c4.7,4.2,9.7,8.1,15.3,12.8C608.6,174.9,607.7,175,606.9,174.8z M615.7,93.3c-4.8-2-9.5-4.1-14.3-6.1
	c-0.3,0.2-0.7,0.4-0.7,0.7c-0.6,6.3-4.2,7.2-9.9,6.5c-8.4-1.1-16.9-1.1-26.1-1.7c1.5-6.7-2.5-14.1,5-19.7c-3.4-1.7-6.8-3.5-10.5-5.4
	c0.7-2.1,1.5-4.2,2.5-7c4.8,1.8,9.4,3.3,13.9,5.2c3.8,1.6,7,1.5,10.7-0.6c7.1-4,14.4-7.5,22.6-11.6c-1.6,6.7-3.2,12.4-4.2,18.2
	c-0.4,2.3,0.3,5.2,1.5,7.1c3,4.7,6.7,9,10.1,13.5C616.1,92.7,615.9,93,615.7,93.3z M618.2,58.7c-5-7-10.1-14-15-21.1
	c-0.9-1.3-1.3-3.6-0.7-4.9c4.1-9.8,8.4-19.5,13.9-29.2c1,18.3,2.1,36.6,3.1,54.8C619.1,58.5,618.6,58.6,618.2,58.7z M897.4,49.7
	c4.7-2.3,9.8-3.8,14.8-5.6c0.1,0.3,0.1,0.6,0.2,0.9c-5.9,3.7-11.7,7.4-17.6,11.1c-0.4-0.3-0.8-0.5-1.2-0.8
	C894.9,53.3,895.7,50.5,897.4,49.7z M888,93.3c-7.4,0.8-10.8-5.3-15.5-9.2C880.2,82.7,882.8,90.4,888,93.3z M764,29
	c10.1-5.4,19.7-11.8,29.1-18.4c4.5-3.1,8.1-3.8,13-1c6.7,3.7,13.8,6.7,20.7,9.8c1.5,0.7,2.9,2.7,4.7-0.5c1-1.8,8.3,1.8,9.6,4
	c1.2,2.1,3,4.3,5,5.4c7.3,3.8,14.9,7.2,22.4,10.7c-0.1,0.3-0.2,0.6-0.3,0.9c-4.5,0.4-8.9,1.1-13.4,1.1c-7.3,0.1-13.2,2.5-16.6,9.6
	c-1-0.9-1.6-1.2-1.6-1.5c-0.2-5.4-2.6-6.1-7.9-5.5c-28.4,3-56.9,5.4-86.5,8.1C748.7,42.4,754.3,34.1,764,29z M854.4,73.7
	c-2.4-2.3-4.8-4.6-7.5-7.2c1.7-1.9,3-3.3,4.6-4.9c0.4,1,0.9,1.6,1.1,2.3C853.4,66.9,854.2,70.1,854.4,73.7z M762.6,106.2
	c-6.1-2.8-12.3-5.6-18.4-8.3c0.1-0.5,0.3-1,0.4-1.5c9.4,2.3,18.9,4.5,28.7,6.9c-0.3,4.1-0.6,7.9-0.9,12.4c-10.4-1.7-20.2-3.3-30-4.9
	c0-0.4,0-0.8,0-1.2c6.8-0.7,13.5-1.4,20.3-2.2C762.7,107,762.6,106.6,762.6,106.2z M773,86.9c-1.9-2.1-4.5-3.5-6.5-5.3
	c-2.2-1.9-6-4.4-5.8-6.1c0.8-4.5,3.4-8.7,5.8-14.2c8.8,10.4,16.5,19.4,24.4,28.7C783.5,93,777.9,92.3,773,86.9z M796.8,95.2
	c-0.7,3.7-1.1,6.1-1.7,9.4c-2.5-2-4.2-3.4-6.7-5.4C791.4,97.8,793.5,96.8,796.8,95.2z M690.1,75.3c-0.6,1.4-0.8,3.2-1.7,3.6
	c-3.4,1.4-6.9-0.2-8.2-3.6C683.2,75.3,686.1,75.3,690.1,75.3z M677.5,92.6c10.4,4.3,20.6,8.5,31.3,12.9c-4.5,6.6-8.7,12.7-13,19
	c-8.4-5.8-16.4-11.3-24.8-17C673.1,102.5,675.2,97.8,677.5,92.6z M683.1,174.3c-5.1-1.4-10.2-2.8-15.7-4.2c1.1-3,1.9-5.3,2.9-8.2
	c4.6,3.9,8.9,7.6,13.2,11.3C683.4,173.5,683.2,173.9,683.1,174.3z M712.6,180.3c-10.9-1-19.8-5.4-27.4-14.8
	c11.2,4.1,21.4,7.9,31.5,11.7C716.5,180.2,715.6,180.5,712.6,180.3z M707.5,62.6c-2.3-9.5-2.3-9.5,5.6-12.5c6.7-2.4,13.4-4.9,20-7.3
	c1.4-0.5,2.9-0.9,4.4-1.4c0.2,0.4,0.4,0.8,0.6,1.2C728,49.2,717.9,55.7,707.5,62.6z M766.3,166c-9,1.3-18,2.6-28.1,4
	c2.7-7.3,5-13.8,7.7-21.1c7.2,5.5,13.9,10.7,20.6,15.8C766.4,165.1,766.4,165.5,766.3,166z M767.5,160.7c0-0.4,0-0.8,0.1-1.2
	c6-1.5,12-3.1,18.5-4.7c1.1,3.4,2,6.5,3.4,10.8C781.6,163.8,774.5,162.3,767.5,160.7z M856.9,142.3c-6.4,2.8-12.6,5.1-19.9,2.9
	c-3.1-0.9-6.8,0.5-11.5,1c3.6,2.8,6,5.2,8.9,6.8c5.8,3.3,7.3,8,5.1,14.8c-20.1-5.9-40.2-11.7-60.3-17.6c0.1-0.3,0.1-0.6,0.2-0.8
	c13.7-2.8,27.4-5.6,41.6-8.5c-2.1-2.6-3.3-4-4.5-5.5c0.3-0.6,0.6-1.2,0.9-1.8c4.6,7,8.7,2.9,13,0.6c18.6-10,37.1-20,56.1-30.2
	c4.9,6.9,9.7,13.6,14.8,20.8c-10.5,4.2-20.5,8.2-30.6,12.2C866.1,138.8,861.4,140.3,856.9,142.3z M898.7,156.3
	c-1.3-2.8-2.5-5.3-3.9-8.3c4.8-1.8,9-3.5,13.2-5.1c0-0.2,0-0.5-0.1-0.7c-1.7-0.1-3.3-0.3-5.2-0.4c-0.4-1.3-0.7-2.5-1-3.8
	c-1.3-5,1.8-10.2,6.8-10.7c1-0.1,3.1,2.1,3,3.1c-0.5,6.4,0.4,12.1,6.6,17C911.2,150.6,905.2,153.3,898.7,156.3z M910.7,90.9
	c8.9-4.8,17.1-9.2,26.1-14c1.2,9.6,2.4,18.7,3.2,27.9c0.1,1.3-1.7,3.4-3.2,4.2c-4.1,2.3-8.5,4-13.2,6.2
	C919.3,107.1,915.1,99.2,910.7,90.9z M935.9,138.5c-0.9-1.8-1.9-3.7-3-6.1c3.4-2.2,6.3-4.2,9.4-6.2
	C944.9,135.4,944.9,135.4,935.9,138.5z M993.7,121.7c-11.5-0.9-23.1-1.5-34.5-3c-2-0.3-3.4-4.4-5.8-7.7c15.7-1.1,27.5,6.3,40.5,9.3
	C993.8,120.8,993.7,121.2,993.7,121.7z M1004.9,140.7c0-0.4-0.1-0.7-0.1-1.1c6.5-0.9,13-1.8,20-2.8c-0.2,2.1-0.4,3.5-0.6,5
	C1017.6,141.4,1011.3,141,1004.9,140.7z M1040.4,165c-4.1,0-8.2,0-12.3,0c0,0.2,0,0.4-0.1,0.7c2,0.2,4,0.4,6,0.6
	c0,0.3-0.1,0.6-0.1,0.8c-6.8-0.5-13.5-1.1-20.3-1.6c0-0.8,0.1-1.6,0.1-2.4c8.9,0.4,17.8,0.8,26.7,1.2
	C1040.4,164.5,1040.4,164.7,1040.4,165z M1246.2,170.6c0.6,0.4,1.2,0.9,1.8,1.3c-4.7,7.3-9.5,14.6-14.2,21.9
	C1237.3,185.7,1240,177,1246.2,170.6z M1085.4,146.1c-5.2-3.9-10.3-7.8-15.5-11.8c-0.3,0.3-0.6,0.5-0.9,0.8
	c2.7,6.1,5.4,12.1,8.1,18.2c-0.4,0.3-0.8,0.5-1.3,0.8c-5.5-8.1-10.9-16.2-16.7-24.7c2.7-2.6,5.3-5,8.3-7.8
	c6.4,8.1,12.5,15.9,18.6,23.6C1085.9,145.5,1085.7,145.8,1085.4,146.1z M1120,124.5c-2.3-5.4-4.4-10.1-7.1-16.3
	c7.1,2.3,13,4.3,19.9,6.5C1128,118.4,1124.2,121.3,1120,124.5z M1140.4,107.6c0,0.6-0.4,1.2-1,2.8c-9.5-7-18.3-13.8-27.5-19.9
	c-6.8-4.5-11.3-10.3-14.1-17.9c-3.1-8.7-7-17.2-10.7-26.1c20.1-4.9,39.7-9.8,60.1-14.8c2.4,9.8,4.7,19.2,6.9,28.7
	c0.2,0.8-0.5,1.8-1,2.6c-0.3,0.6-0.8,1.1-1.4,1.4c-11.2,7.5-13.3,18.4-11.6,30.8C1140.7,99.2,1140.4,103.4,1140.4,107.6z M1217,99.2
	c-5,10.8-9.3,20.3-13.9,29.7c-0.5,1-2.6,1.9-3.9,1.8c-18.9-1.9-37.7-3.9-57.1-6c0.6-1.1,0.9-2,1.5-2.6c6.5-6.8,13.1-13.7,19.8-20.4
	c1.2-1.2,3-2.4,4.6-2.4C1183.9,99.2,1199.9,99.2,1217,99.2z M1194.8,20.6c-1.7-4.7-3.2-9-5.1-14.3c7.8,2.1,14.8,3.9,22.9,6
	C1206.1,15.3,1200.8,17.8,1194.8,20.6z"/>
<path class="st0" d="M997.6,98.5c10.8,2.1,21,4,31.4,6.1c-0.1,0.3-0.3,1.3-0.6,2.8c4.3,0.6,8.3,1.2,12.3,1.7
	c0.1-0.3,0.1-0.6,0.2-0.9c-2.2-1.5-4.4-3-7.4-5.1c6.2-0.6,11.2-1.4,16.1-1.6c4.3-0.2,6.3-2.2,7.7-6.2c6.5-19.9,13.4-39.7,19.8-59.7
	c0.7-2,0-5.3-1.3-7.1c-6.7-9.3-13.8-18.4-20.7-27.5c-5.3,0-10.7,0-16,0c-13.4,30.4-26.8,60.9-40.1,91.3
	C998.1,94.1,998.1,96.1,997.6,98.5z"/>
<path class="st0" d="M1211.2,164.1c-19.9-10.1-40.4-18.9-60.7-28.1c-1.6-0.7-4.2-0.5-5.8,0.4c-10.3,5.7-18.7,14.8-30.9,17.5
	c10.8,14.4,15.1,31.4,22.2,47.1c21.7,0,43.3,0,65,0c10.2-6.6,20.4-13.1,31.4-20.2C1225,174.9,1218.8,168,1211.2,164.1z"/>
<path class="st0" d="M1263.2,65.3c-0.5-1.2-1.6-3.8-3-7c-0.6,5.5,3.9,10.8-2,15.4c-2.1-7-4.4-13.6-6-20.4c-1.2-5.1-2.5-9.5-10.5-9.4
	c5.4-3.4,9.2-5.8,13.5-8.5c-7.1-3.4-13.6-6.6-20.3-9.6c-1.5-0.7-3.6-0.8-5.2-0.4c-13.1,3.7-26.1,7.5-39.1,11.6
	c-1.8,0.6-2.9,3.1-4.4,4.7c1.6,1.4,3,3.7,4.8,4c11.2,1.9,22.4,3.7,33.7,4.9c2.9,0.3,6-1.2,8.9-2.1c1.5-0.5,2.8-1.5,3.8-2
	c6.5,10.3,12.6,20,18.5,29.5c-1.5,2.1-2.6,3.6-3.8,5.3c9.8,3.3,19.2,6.4,28.7,9.5c0-8,0-16,0-24c-2.7-0.7-5.4-1.6-8.2-1.9
	C1269.9,64.8,1267,65.2,1263.2,65.3z"/>
<path class="st0" d="M146,178.6c-12.7,2.3-24.3,1.3-32.7-10.1c-0.3-0.4-0.7-0.8-1.1-0.9c-1-0.4-2.2-1-3.1-0.8
	c-9.2,2.7-18.4,5.5-27.8,8.4c2.7,8.9,5.2,17.4,7.7,25.8c19,0,38,0,57,0c4.7-7.3,9.3-14.6,14.8-23.3
	C154.8,178.1,150.3,177.8,146,178.6z"/>
<path class="st0" d="M332.8,186.4c-1.1-2.3-1.4-3.6-2.2-4.2c-3.1-2.5-6.4-4.7-9.7-7c-12.4-8.9-24.8-17.8-38.5-27.6
	c-1.3,12.7-2.5,24.2-3.7,36.5c3.3,0,5.8,0.1,8.2,0c2.6-0.1,4,0.6,4.1,3.6c0.1,4.5,0.6,8.9,0.9,13.4c0.3,0,0.7,0,1,0
	c1.4-2.3,2.7-4.6,4.1-6.8c7.2-11.1,8.6-11.7,22.7-9.2c-3.3,5.4-6.5,10.7-9.8,16c10.3,0,20.7,0,31,0
	C341.5,190.3,341.5,190.3,332.8,186.4z"/>
<path class="st0" d="M46.8,72.6c-1.2,3.5-2.1,7.5,1.8,9.8c4.4,2.6,9.2,4.5,14.2,6.9c1.5-3.7,3-7.1,4.2-10.6c2.9-8.4,8-16.1,8.2-25.5
	c0.2-10,1.1-19.9,1.8-29.8C77.6,15.9,78.3,8.4,79,1c-2.7,0-5.3,0-8,0c-0.5,2-1,4.1-1.7,6.1C61.8,29,54.3,50.8,46.8,72.6z"/>
<path class="st0" d="M1047.1,186.6c3.6-3.6-1.8-3.3-2.3-5.1c-0.3-1-0.6-2-1-3.3c-6.6,0.6-9.6-7.2-15.9-9.4c-0.6,1.3-1.4,2.3-1.6,3.4
	c-1,5.1-4.1,6.3-8.9,5.9c-5.8-0.5-11.6-0.3-17.4-0.2c-1.3,0-3.3,0.6-3.7,1.5c-1.7,3.6-2.9,7.4-4.5,11.8c9.1-2.1,17.2-4,25.4-5.9
	c0.9-0.2,2.7-0.3,2.8,0c1.7,4.3,5.3,2.2,8.1,2.3c4.4,0.3,8.9,0.1,13.6,0.1c1.4,4.2,2.8,8.8,4.3,13.3c7,0,14,0,21,0
	c-5.8-4.1-11.6-8.1-17.3-12.2C1048.7,188.1,1047.9,187.3,1047.1,186.6z"/>
<path class="st0" d="M206.2,183.2c5.9,6.3,11.4,12.1,16.8,17.8c1,0,2,0,3,0c8.9-11.7,17.8-23.4,27.6-36.3
	C237.1,171.1,222,177,206.2,183.2z"/>
<path class="st0" d="M386.1,3.5c5.4,5.5,10.9,10.9,16.5,16.4c2.6-5.7,4.9-10.8,7.5-16.6c4.2,5.4,7.9,9.8,11.3,14.5
	c2.2,2.9,4.6,4,8.6,2.6c-2-6.7,0.6-14.8-7-19.4c-12,0-24,0-36,0C386.7,1.8,385.8,3.2,386.1,3.5z"/>
<path class="st0" d="M796.6,190.5c-1-2.2-1.6-4.7-2.1-7.2c-0.6-3.3-2.3-4.9-5.5-5.3c-7.1-0.9-13.5-4.9-21.3-2.3
	c-4.6,1.5-10.1,0.3-15.8,0.3c7.8,4.5,13.8,6.1,22.7,6.3c0.8,0,2,0.5,2.5,1.1c4.1,5.8,8,11.7,12,17.6c1.7,0,3.3,0,5,0
	C798.2,198.3,798.6,194.8,796.6,190.5z"/>
<path class="st0" d="M606.3,192.7c-2.7,0.5-5.6,0.3-8.4,0.3c-8.6-0.1-15.7,4.1-22.8,8c20.3,0,40.7,0,61,0
	C626.7,196,617.6,190.7,606.3,192.7z"/>
<path d="M297.1,194.2c-1.4,2.2-2.7,4.5-4.1,6.8c5.7,0,11.3,0,17,0c3.2-5.3,6.5-10.6,9.8-16C305.7,182.5,304.3,183.1,297.1,194.2z"/>
<path class="st0" d="M956.5,169.2c-1.4,3.4-0.9,6.1,1,9.2c4.7,7.4,9,15.1,13.5,22.6c0.7,0,1.3,0,2,0c-4.2-14-8.4-28-12.9-43.3
	C958.7,162.3,957.8,165.9,956.5,169.2z"/>
<path class="st0" d="M839.5,191.6c0-1.1-1.1-3.1-1.9-3.2c-6.5-1.2-13-2.1-20.7-3.3c6.4,5.9,11.8,10.9,17.2,15.9c1.7,0,3.3,0,5,0
	C839.2,197.9,839.6,194.7,839.5,191.6z"/>
<path class="st0" d="M161,201c5.7,0,11.3,0,17,0c-4.1-5.1-8.1-10.2-13.1-16.4C163.4,191.2,162.2,196.1,161,201z"/>
<path class="st0" d="M955.5,189.7c0.5,3.8,1,7.5,1.5,11.3c2,0,4,0,6,0c-2.7-7.4-5.4-14.8-8-22.3C954.5,182.6,955,186.2,955.5,189.7z
	"/>
<path class="st0" d="M400.6,56.6c-8.9-0.3-17.6-2.8-25.1-9.8c10,2.9,19.3,5.6,28.6,8.3c0.1-0.2,0.2-0.5,0.2-0.7
	c-18.5-9.6-37-19.3-55.9-29.2c-2,4.8-3.4,8.4-5,12c3,1.1,5.4,1.9,8.2,2.8c-4.9,8.3-9.6,16.2-14.5,24.5c-2.6-1.9-4.9-3.8-7.5-5.2
	c-3.6-2-4.3-4.7-3.6-8.7c1-5.1,1.4-10.2,1.8-15.4c0.3-4.1-1.1-6.6-6-6.2c-6.6,0.6-13.3,0.4-19.9,0.9c-1.7,0.1-4.1,1.1-5,2.4
	c-4.4,6.7-9,12.3-13.7,11.7c7,3,15.2,10.8,24.2,17.6c0.8,0.6,2.3,1,3.2,0.7c9.1-3,16.5,1.5,24.4,5.3c-0.7,1.3-1.1,3-2,3.5
	c-7.3,3.5-14.7,6.7-22.4,10.1c4.3,6.1,8.6,12.1,13.6,19.2c-11.6,0.7-15.3,7.7-16,17.2c-0.3,3.7-2.2,5.9-5.4,7.7
	c-5.2,3-10.2,6.2-15.1,9.7c-1.4,1-2.3,3.1-2.7,4.9c-0.1,0.6,2.3,2,3.8,2.4c9.1,2.4,17.7,5.6,24.7,12.4c0.8,0.8,3.6,1.1,4.1,0.5
	c2.5-3,5.2-2.2,8.1-1.2c5.5,1.8,11.1,3.6,16.6,5.4c6.9,2.2,13.8,4.3,21.8,6.8c-7-18.7-13.6-36.3-20.3-54c12.3-1.2,16.5,0.3,24.5,8.1
	c0.6,0.6,1.2,1.2,1.8,1.8c2.7,2.8,4.6,2,6-1.3c2-4.7,4.2-9.4,6.1-14.2c1.1-2.8,2.5-3.9,5.6-3.2c2.8,0.6,5.8,0.7,8.8,1
	c3-12.4,6-24.2,8.7-36c0.3-1.6-1-3.5-1.7-5.6c5.8,2,11.6,4.1,17.4,6.1C415.6,62.6,410.1,57,400.6,56.6z M340.7,102.7
	c-1.5-3.3-2.7-6-4-8.8c6.1-9.8,13.1-11.9,26.7-7.4C355.8,92,348.4,97.2,340.7,102.7z"/>
<path class="st0" d="M283.4,44.3c-0.9-0.4-1.8-0.7-2.6-0.9C281.6,43.9,282.5,44.2,283.4,44.3z"/>
<path class="st0" d="M180.6,114.3c-8.2-3.6-16.3-7.3-25.4-11.4c8.2-9.1,9-23.4,24-26.1c-1.6-1.5-2.6-2.6-3.7-3.5
	c-7.6-6.5-15.2-13-22.9-19.3c-2.6-2.1-3.2-3.9-1.8-7.2c2.9-6.5,5.3-13.3,7.9-20c2.1-5.5,4.2-11,6.5-17c-10.5-1.4-19.8,0.4-27.7,6
	c-10.6,7.5-20.4,16-30.7,23.9c-2.3,1.8-2.6,3.3-1.5,5.9c6.8,16.6,13.4,33.3,20,50c0.2,0.6,0.7,1.1,1,1.7c1.5-0.2,2.9-0.5,4.9-0.8
	c2.5,12.7,11.3,21,19.7,29.5c10.7,11,21.4,21.9,31.7,33.1c3.6,4,6.9,5.4,12.5,4c16.6-4.1,33.4-7.4,51.6-11.3
	c-9.8-7.3-17.9-14.7-27.3-19.8C207.1,125.2,193.6,120.2,180.6,114.3z M136.3,94.5c6.1-3.8,6.5-3.7,8.7,3.8
	C141.9,96.9,139.2,95.8,136.3,94.5z"/>
<path class="st0" d="M1151.7,64.3c0.5-0.4,1.1-0.9,1.4-1.4c0.5-0.8,1.2-1.9,1-2.6c-2.2-9.5-4.5-18.9-6.9-28.7
	c-20.4,5-40,9.9-60.1,14.8c3.7,8.9,7.6,17.4,10.7,26.1c2.8,7.7,7.2,13.4,14.1,17.9c9.2,6.1,18,13,27.5,19.9c0.6-1.6,1-2.2,1-2.8
	c0-4.1,0.3-8.3-0.3-12.4C1138.4,82.7,1140.5,71.9,1151.7,64.3z"/>
<path class="st0" d="M836.6,49.1c0,0.3,0.6,0.6,1.6,1.5c3.4-7,9.3-9.5,16.6-9.6c4.5,0,8.9-0.7,13.4-1.1c0.1-0.3,0.2-0.6,0.3-0.9
	c-7.5-3.5-15-6.9-22.4-10.7c-2.1-1.1-3.8-3.3-5-5.4c-1.3-2.3-8.6-5.9-9.6-4c-1.8,3.2-3.2,1.1-4.7,0.5c-7-3.2-14.1-6.1-20.7-9.8
	c-4.9-2.8-8.5-2.1-13,1c-9.4,6.5-19,13-29.1,18.4c-9.7,5.2-15.4,13.5-21.8,22.7c29.6-2.7,58.1-5.1,86.5-8.1
	C834.1,43,836.4,43.7,836.6,49.1z"/>
<path class="st0" d="M489.9,138.9c-7.6-0.6-13.6-3.9-17.2-10.8c-2.4-4.6-5.4-5.3-10.4-3.2c-4.7,1.9-6.8,4.2-7.1,9.2
	c-0.4,5.8-1.5,11.6-2.4,17.3c-0.3,0-0.5-0.1-0.8-0.1c0.5-6.6,1.1-13.2,1.6-20.3c-3.7-0.8-7.2-1.5-11.2-2.4
	c0.3,6.3,0.5,11.9,0.9,17.5c0.5,7.8,0.8,15.5,4.6,22.8c1.3,2.4,1.4,5.7,1.2,8.5c-0.5,6.4-2.7,12.8,2.5,18.8c8-3,16.1-5.9,24-9.2
	c2.8-1.2,5.5-3,7.6-5.2c6.7-7.3,13.8-14.2,19.1-23.4c-1.9-4.5-4.2-9.2-6-14.2C495.1,140.8,493.2,139.1,489.9,138.9z"/>
<path class="st0" d="M886.5,104c-19,10.2-37.6,20.2-56.1,30.2c-4.3,2.3-8.4,6.4-13-0.6c-0.3,0.6-0.6,1.2-0.9,1.8
	c1.2,1.5,2.4,2.9,4.5,5.5c-14.2,2.9-27.9,5.7-41.6,8.5c-0.1,0.3-0.1,0.6-0.2,0.8c20.1,5.9,40.2,11.7,60.3,17.6
	c2.2-6.8,0.7-11.5-5.1-14.8c-2.8-1.6-5.3-4-8.9-6.8c4.7-0.5,8.4-1.9,11.5-1c7.3,2.2,13.5-0.1,19.9-2.9c4.5-2,9.2-3.6,13.8-5.4
	c10-4,20.1-8,30.6-12.2C896.1,117.6,891.4,110.9,886.5,104z"/>
<path class="st0" d="M580.2,146.3c-0.9-2.2-3.5-4.3-5.8-5.4c-8.6-4.2-17.3-8.1-26-12c-11.7-5.3-23.3-10.6-36.1-16.4
	c4.7,13.3,8.8,25.2,13.2,37.1c0.6,1.5,2.6,2.9,4.2,3.4c25.7,7.4,51.5,14.6,77.2,21.9c0.8,0.2,1.7,0,3.5,0
	c-5.7-4.7-10.6-8.6-15.3-12.8C589.6,157.3,583.1,153.7,580.2,146.3z"/>
<path class="st0" d="M1163.4,101.7c-6.7,6.7-13.2,13.6-19.8,20.4c-0.6,0.6-0.9,1.5-1.5,2.6c19.4,2.1,38.2,4.1,57.1,6
	c1.3,0.1,3.4-0.8,3.9-1.8c4.6-9.4,8.9-18.9,13.9-29.7c-17.2,0-33.1-0.1-49,0.1C1166.5,99.4,1164.6,100.5,1163.4,101.7z"/>
<path class="st0" d="M604.7,71.8c0.9-5.8,2.6-11.5,4.2-18.2c-8.1,4.2-15.5,7.6-22.6,11.6c-3.7,2.1-7,2.2-10.7,0.6
	c-4.5-1.9-9.1-3.4-13.9-5.2c-1,2.8-1.7,4.9-2.5,7c3.7,1.9,7.1,3.6,10.5,5.4c-7.5,5.7-3.5,13-5,19.7c9.2,0.5,17.7,0.6,26.1,1.7
	c5.7,0.7,9.3-0.1,9.9-6.5c0-0.2,0.5-0.4,0.7-0.7c4.7,2,9.5,4.1,14.3,6.1c0.2-0.3,0.4-0.6,0.6-0.9c-3.4-4.5-7.1-8.8-10.1-13.5
	C604.9,77,604.3,74,604.7,71.8z"/>
<path class="st0" d="M940,104.7c-0.8-9.1-2-18.3-3.2-27.9c-9,4.8-17.2,9.3-26.1,14c4.4,8.3,8.6,16.2,12.9,24.2
	c4.7-2.1,9.1-3.9,13.2-6.2C938.3,108.1,940.1,106,940,104.7z"/>
<path class="st0" d="M708.7,105.5c-10.7-4.4-20.9-8.6-31.3-12.9c-2.3,5.2-4.4,9.8-6.6,14.9c8.4,5.8,16.4,11.2,24.8,17
	C700.1,118.2,704.2,112.1,708.7,105.5z"/>
<path class="st0" d="M602.5,32.8c-0.6,1.3-0.1,3.6,0.7,4.9c4.9,7.1,10,14.1,15,21.1c0.4-0.1,0.9-0.2,1.3-0.3
	c-1-18.3-2.1-36.6-3.1-54.8C610.9,13.3,606.5,23,602.5,32.8z"/>
<path class="st0" d="M790.8,89.9c-7.9-9.4-15.6-18.4-24.4-28.7c-2.4,5.6-5,9.8-5.8,14.2c-0.3,1.7,3.6,4.2,5.8,6.1
	c2.1,1.9,4.7,3.3,6.5,5.3C777.9,92.3,783.5,93,790.8,89.9z"/>
<path class="st0" d="M78,96.6c0.7,0.3,2.1,0.9,3.9,1.7c2.3-5.7,4.2-10.8,6.4-15.9c7.3-17.2,8.8-28,6.2-43C89,58.3,83.5,77.3,78,96.6
	z"/>
<path class="st0" d="M911.5,130.4c0.1-1-2.1-3.2-3-3.1c-5,0.5-8.1,5.7-6.8,10.7c0.3,1.3,0.7,2.5,1,3.8c1.9,0.2,3.5,0.3,5.2,0.4
	c0,0.2,0,0.5,0.1,0.7c-4.2,1.6-8.4,3.3-13.2,5.1c1.4,3.1,2.6,5.5,3.9,8.3c6.5-3,12.5-5.7,19.4-8.9
	C911.9,142.5,911,136.8,911.5,130.4z"/>
<path class="st0" d="M738.2,170c10.1-1.5,19.1-2.8,28.1-4c0.1-0.4,0.1-0.8,0.2-1.3c-6.7-5.1-13.4-10.3-20.6-15.8
	C743.2,156.2,740.9,162.7,738.2,170z"/>
<path class="st0" d="M742.4,110.7c9.8,1.6,19.6,3.2,30,4.9c0.3-4.5,0.6-8.3,0.9-12.4c-9.8-2.4-19.3-4.6-28.7-6.9
	c-0.1,0.5-0.3,1-0.4,1.5c6.1,2.8,12.3,5.6,18.4,8.3c0,0.4,0.1,0.8,0.1,1.1c-6.8,0.7-13.5,1.4-20.3,2.2
	C742.4,109.9,742.4,110.3,742.4,110.7z"/>
<path class="st0" d="M1059.2,129.3c5.8,8.5,11.2,16.6,16.7,24.7c0.4-0.3,0.8-0.5,1.3-0.8c-2.7-6.1-5.4-12.1-8.1-18.2
	c0.3-0.3,0.6-0.5,0.9-0.8c5.2,3.9,10.3,7.8,15.5,11.8c0.2-0.3,0.5-0.6,0.7-0.9c-6.1-7.8-12.3-15.6-18.6-23.6
	C1064.5,124.3,1061.9,126.8,1059.2,129.3z"/>
<path class="st0" d="M953.4,111c2.3,3.2,3.8,7.4,5.8,7.7c11.4,1.5,23,2.1,34.5,3c0.1-0.5,0.1-0.9,0.2-1.4
	C980.9,117.3,969.1,110,953.4,111z"/>
<path class="st0" d="M550.7,90.4c-3.6-1.4-6.7-2.8-9.9-4c-6.8-2.6-9.1-1.4-11.7,6.2c5.8,2.8,11.5,5.7,17.6,8.6
	C548.1,97.4,549.3,94.2,550.7,90.4z"/>
<path class="st0" d="M230.3,92.8c0.5-0.9-0.5-4-1.2-4.2c-5.2-1.3-10.5-2.1-16.9-3.2c3.3,7.3,6.2,13.4,9.4,20.5
	C224.9,101.1,227.8,97.1,230.3,92.8z"/>
<path class="st0" d="M733.1,42.8c-6.7,2.4-13.4,4.9-20,7.3c-8,2.9-8,2.9-5.6,12.5c10.5-6.8,20.6-13.4,30.6-19.9
	c-0.2-0.4-0.4-0.8-0.6-1.2C736.1,41.9,734.6,42.3,733.1,42.8z"/>
<path class="st0" d="M30.6,179.4c-5.1,2.3-10,4.9-15,7.4c0.1,0.4,0.2,0.8,0.3,1.2c9,1.3,18,2.7,28.4,4.3c-4.1-4.8-7.1-8.5-10.3-12
	C33.4,179.5,31.5,179,30.6,179.4z"/>
<path class="st0" d="M1194.8,20.6c6-2.8,11.4-5.3,17.8-8.3c-8.1-2.1-15.1-4-22.9-6C1191.6,11.7,1193.1,15.9,1194.8,20.6z"/>
<path class="st0" d="M712.6,180.3c2.9,0.3,3.8-0.1,4.1-3.1c-10.1-3.7-20.3-7.5-31.5-11.7C692.8,174.8,701.7,179.3,712.6,180.3z"/>
<path class="st0" d="M1120,124.5c4.2-3.2,8-6.1,12.8-9.8c-7-2.3-12.8-4.2-19.9-6.5C1115.6,114.4,1117.7,119.2,1120,124.5z"/>
<path class="st0" d="M767.5,159.5c0,0.4,0,0.8-0.1,1.2c7.1,1.6,14.1,3.1,21.9,4.8c-1.3-4.3-2.3-7.4-3.4-10.8
	C779.6,156.4,773.5,157.9,767.5,159.5z"/>
<path class="st0" d="M444.8,50.3c-9.5-4.2-19-8.4-28.5-12.4c-0.8-0.3-2.1,0.5-3.8,0.9C422.8,46.3,432.8,50.8,444.8,50.3z"/>
<path class="st0" d="M509.2,180.1c-0.8,0-1.6,1.1-2.4,1.6c0.2,0.6,0.4,1.2,0.6,1.8c11.6-0.7,23.1-1.4,34.7-2c0-0.5,0-1-0.1-1.4
	C531.1,180,520.1,180,509.2,180.1z"/>
<path class="st0" d="M667.4,170c5.5,1.5,10.6,2.9,15.7,4.2c0.2-0.4,0.3-0.8,0.5-1.2c-4.3-3.7-8.6-7.3-13.2-11.3
	C669.3,164.7,668.4,167,667.4,170z"/>
<path class="st0" d="M932.9,132.5c1.2,2.4,2.1,4.2,3,6.1c9-3.1,9-3.1,6.4-12.2C939.2,128.3,936.3,130.3,932.9,132.5z"/>
<path class="st0" d="M888,93.3c-5.2-3-7.7-10.7-15.5-9.2C877.2,88.1,880.5,94.2,888,93.3z"/>
<path class="st0" d="M1024.8,136.8c-7,1-13.5,1.9-20,2.8c0,0.4,0.1,0.7,0.1,1.1c6.3,0.4,12.6,0.7,19.2,1.1
	C1024.4,140.3,1024.5,138.9,1024.8,136.8z"/>
<path class="st0" d="M1246.2,170.6c-6.3,6.4-8.9,15.1-12.4,23.3c4.7-7.3,9.5-14.6,14.2-21.9C1247.4,171.5,1246.8,171.1,1246.2,170.6
	z"/>
<path class="st0" d="M1013.6,165.5c6.8,0.5,13.5,1.1,20.3,1.6c0-0.3,0.1-0.6,0.1-0.8c-2-0.2-4-0.4-6-0.6c0-0.2,0-0.4,0.1-0.7
	c4.1,0,8.2,0,12.3,0c0-0.3,0-0.5,0.1-0.8c-8.9-0.4-17.8-0.8-26.7-1.2C1013.7,163.9,1013.7,164.7,1013.6,165.5z"/>
<path class="st0" d="M912.4,44.9c-0.1-0.3-0.1-0.6-0.2-0.9c-5,1.8-10.1,3.3-14.8,5.6c-1.8,0.9-2.6,3.6-3.8,5.6
	c0.4,0.3,0.8,0.5,1.2,0.8C900.7,52.3,906.5,48.6,912.4,44.9z"/>
<path class="st0" d="M443.2,56.9c4.1,2.1,8.2,4.2,13.1,6.8c0.9-2.5,1.5-4.2,2.2-6.3c-5.5-0.6-10.2-1.1-15-1.6
	C443.4,56.1,443.3,56.5,443.2,56.9z"/>
<path class="st0" d="M369.9,7.5c5.4,2.3,10.4,4.5,16.5,7.1C379,5.4,376.1,4.2,369.9,7.5z"/>
<path class="st0" d="M846.8,66.5c2.7,2.6,5.1,4.9,7.5,7.2c-0.2-3.6-1-6.7-1.9-9.8c-0.2-0.7-0.6-1.4-1.1-2.3
	C849.9,63.2,848.5,64.6,846.8,66.5z"/>
<path class="st0" d="M540.1,163.9c0.1-0.4,0.2-0.7,0.3-1.1c-2.9-1.6-5.6-3.3-8.6-4.6c-0.9-0.4-2.4,0.8-3.6,1.2
	c0.8,0.9,1.5,2.4,2.5,2.7C533.6,163,536.9,163.4,540.1,163.9z"/>
<path class="st0" d="M688.4,78.8c0.8-0.4,1.1-2.2,1.7-3.6c-4,0-6.9,0-9.9,0C681.5,78.7,685,80.3,688.4,78.8z"/>
<path class="st0" d="M796.8,95.2c-3.3,1.6-5.4,2.6-8.4,4c2.5,2,4.3,3.4,6.7,5.4C795.7,101.3,796.1,98.9,796.8,95.2z"/>
<path d="M336.7,93.9c1.3,2.9,2.5,5.5,4,8.8c7.7-5.5,15-10.7,22.7-16.2C349.8,82,342.8,84.1,336.7,93.9z"/>
<path d="M136.3,94.5c3,1.3,5.6,2.4,8.7,3.8C142.8,90.8,142.4,90.7,136.3,94.5z"/>
</svg>
